<mxfile host="app.diagrams.net" modified="2023-10-22T11:07:36.457Z" agent="Mozilla/5.0 (Windows NT 10.0; Win64; x64) AppleWebKit/537.36 (KHTML, like Gecko) Chrome/118.0.0.0 Safari/537.36" etag="1lPJcr9T0Sv2gzheEbWM" version="22.0.0" type="device">
  <diagram name="Strona-1" id="57BagvwrJGTCNAmZzF1o">
    <mxGraphModel dx="2591" dy="960" grid="1" gridSize="10" guides="1" tooltips="1" connect="1" arrows="1" fold="1" page="1" pageScale="1" pageWidth="827" pageHeight="1169" math="0" shadow="0">
      <root>
        <mxCell id="0" />
        <mxCell id="1" parent="0" />
        <mxCell id="Q18Vzf5FBxK6tpwk7XFQ-74" value="" style="rounded=0;whiteSpace=wrap;html=1;" vertex="1" parent="1">
          <mxGeometry x="-360" y="160" width="310" height="250" as="geometry" />
        </mxCell>
        <mxCell id="Q18Vzf5FBxK6tpwk7XFQ-1" value="" style="rounded=0;whiteSpace=wrap;html=1;" vertex="1" parent="1">
          <mxGeometry x="20" y="160" width="800" height="600" as="geometry" />
        </mxCell>
        <mxCell id="Q18Vzf5FBxK6tpwk7XFQ-3" value="" style="rounded=0;whiteSpace=wrap;html=1;" vertex="1" parent="1">
          <mxGeometry x="20" y="210" width="290" height="550" as="geometry" />
        </mxCell>
        <mxCell id="Q18Vzf5FBxK6tpwk7XFQ-29" value="" style="rounded=0;whiteSpace=wrap;html=1;" vertex="1" parent="1">
          <mxGeometry x="30" y="340" width="270" height="350" as="geometry" />
        </mxCell>
        <mxCell id="Q18Vzf5FBxK6tpwk7XFQ-2" value="" style="rounded=0;whiteSpace=wrap;html=1;" vertex="1" parent="1">
          <mxGeometry x="20" y="160" width="800" height="50" as="geometry" />
        </mxCell>
        <mxCell id="Q18Vzf5FBxK6tpwk7XFQ-4" value="" style="rounded=0;whiteSpace=wrap;html=1;" vertex="1" parent="1">
          <mxGeometry x="350" y="460" width="420" height="180" as="geometry" />
        </mxCell>
        <mxCell id="Q18Vzf5FBxK6tpwk7XFQ-5" value="" style="rounded=0;whiteSpace=wrap;html=1;" vertex="1" parent="1">
          <mxGeometry x="310" y="720" width="510" height="40" as="geometry" />
        </mxCell>
        <mxCell id="Q18Vzf5FBxK6tpwk7XFQ-6" value="" style="triangle;whiteSpace=wrap;html=1;" vertex="1" parent="1">
          <mxGeometry x="780" y="725" width="30" height="30" as="geometry" />
        </mxCell>
        <mxCell id="Q18Vzf5FBxK6tpwk7XFQ-7" value="" style="triangle;whiteSpace=wrap;html=1;" vertex="1" parent="1">
          <mxGeometry x="780" y="730" width="10" height="20" as="geometry" />
        </mxCell>
        <mxCell id="Q18Vzf5FBxK6tpwk7XFQ-9" value="" style="endArrow=none;html=1;rounded=0;" edge="1" parent="1">
          <mxGeometry width="50" height="50" relative="1" as="geometry">
            <mxPoint x="340" y="750" as="sourcePoint" />
            <mxPoint x="730" y="750" as="targetPoint" />
          </mxGeometry>
        </mxCell>
        <mxCell id="Q18Vzf5FBxK6tpwk7XFQ-10" value="" style="rounded=0;whiteSpace=wrap;html=1;fillColor=#f5f5f5;strokeColor=#666666;fontColor=#333333;" vertex="1" parent="1">
          <mxGeometry x="20" y="210" width="290" height="110" as="geometry" />
        </mxCell>
        <mxCell id="Q18Vzf5FBxK6tpwk7XFQ-11" value="" style="endArrow=none;html=1;rounded=0;entryX=1.001;entryY=0.343;entryDx=0;entryDy=0;exitX=-0.006;exitY=0.349;exitDx=0;exitDy=0;exitPerimeter=0;entryPerimeter=0;" edge="1" parent="1" source="Q18Vzf5FBxK6tpwk7XFQ-4" target="Q18Vzf5FBxK6tpwk7XFQ-4">
          <mxGeometry width="50" height="50" relative="1" as="geometry">
            <mxPoint x="410" y="530" as="sourcePoint" />
            <mxPoint x="460" y="480" as="targetPoint" />
          </mxGeometry>
        </mxCell>
        <mxCell id="Q18Vzf5FBxK6tpwk7XFQ-12" value="" style="endArrow=none;html=1;rounded=0;entryX=1.001;entryY=0.343;entryDx=0;entryDy=0;exitX=-0.006;exitY=0.349;exitDx=0;exitDy=0;exitPerimeter=0;entryPerimeter=0;" edge="1" parent="1">
          <mxGeometry width="50" height="50" relative="1" as="geometry">
            <mxPoint x="348.5" y="586" as="sourcePoint" />
            <mxPoint x="771.5" y="585" as="targetPoint" />
          </mxGeometry>
        </mxCell>
        <mxCell id="Q18Vzf5FBxK6tpwk7XFQ-13" value="Type:" style="text;html=1;strokeColor=none;fillColor=none;align=center;verticalAlign=middle;whiteSpace=wrap;rounded=0;" vertex="1" parent="1">
          <mxGeometry x="20" y="210" width="50" height="30" as="geometry" />
        </mxCell>
        <mxCell id="Q18Vzf5FBxK6tpwk7XFQ-14" value="Severity:" style="text;html=1;strokeColor=none;fillColor=none;align=center;verticalAlign=middle;whiteSpace=wrap;rounded=0;" vertex="1" parent="1">
          <mxGeometry x="135" y="210" width="60" height="30" as="geometry" />
        </mxCell>
        <mxCell id="Q18Vzf5FBxK6tpwk7XFQ-15" value="all" style="rounded=1;whiteSpace=wrap;html=1;" vertex="1" parent="1">
          <mxGeometry x="30" y="240" width="80" height="20" as="geometry" />
        </mxCell>
        <mxCell id="Q18Vzf5FBxK6tpwk7XFQ-16" value="all" style="rounded=1;whiteSpace=wrap;html=1;" vertex="1" parent="1">
          <mxGeometry x="140" y="240" width="80" height="20" as="geometry" />
        </mxCell>
        <mxCell id="Q18Vzf5FBxK6tpwk7XFQ-17" value="" style="sketch=0;pointerEvents=1;shadow=0;dashed=0;html=1;strokeColor=none;labelPosition=center;verticalLabelPosition=bottom;verticalAlign=top;align=center;fillColor=#505050;shape=mxgraph.mscae.oms.log_search" vertex="1" parent="1">
          <mxGeometry x="270" y="280" width="30" height="30" as="geometry" />
        </mxCell>
        <mxCell id="Q18Vzf5FBxK6tpwk7XFQ-20" value="insight 1 -&amp;nbsp;Lorem ipsum dolor sit amet, consectetur adipiscing elit. Nunc molestie interdum nibh a scelerisque. Cras in consequat urna, vitae viverra nisl. In sed sem arcu." style="text;html=1;strokeColor=none;fillColor=none;align=center;verticalAlign=middle;whiteSpace=wrap;rounded=0;" vertex="1" parent="1">
          <mxGeometry x="360" y="470" width="390" height="40" as="geometry" />
        </mxCell>
        <mxCell id="Q18Vzf5FBxK6tpwk7XFQ-21" value="Insight 2 -&amp;nbsp;Lorem ipsum dolor sit amet, consectetur adipiscing elit. Nunc molestie interdum nibh a scelerisque. Cras in consequat urna, vitae viverra nisl. In sed sem arcu." style="text;html=1;strokeColor=none;fillColor=none;align=center;verticalAlign=middle;whiteSpace=wrap;rounded=0;" vertex="1" parent="1">
          <mxGeometry x="360" y="530" width="390" height="40" as="geometry" />
        </mxCell>
        <mxCell id="Q18Vzf5FBxK6tpwk7XFQ-22" value="insight 3 -&amp;nbsp;Lorem ipsum dolor sit amet, consectetur adipiscing elit. Nunc molestie interdum nibh a scelerisque. Cras in consequat urna, vitae viverra nisl. In sed sem arcu." style="text;html=1;strokeColor=none;fillColor=none;align=center;verticalAlign=middle;whiteSpace=wrap;rounded=0;" vertex="1" parent="1">
          <mxGeometry x="360" y="590" width="390" height="40" as="geometry" />
        </mxCell>
        <mxCell id="Q18Vzf5FBxK6tpwk7XFQ-23" value="" style="rounded=1;whiteSpace=wrap;html=1;" vertex="1" parent="1">
          <mxGeometry x="30" y="340" width="270" height="70" as="geometry" />
        </mxCell>
        <mxCell id="Q18Vzf5FBxK6tpwk7XFQ-24" value="" style="rounded=1;whiteSpace=wrap;html=1;" vertex="1" parent="1">
          <mxGeometry x="30" y="410" width="270" height="70" as="geometry" />
        </mxCell>
        <mxCell id="Q18Vzf5FBxK6tpwk7XFQ-25" value="" style="rounded=1;whiteSpace=wrap;html=1;" vertex="1" parent="1">
          <mxGeometry x="30" y="480" width="270" height="70" as="geometry" />
        </mxCell>
        <mxCell id="Q18Vzf5FBxK6tpwk7XFQ-27" value="" style="rounded=1;whiteSpace=wrap;html=1;" vertex="1" parent="1">
          <mxGeometry x="30" y="550" width="270" height="70" as="geometry" />
        </mxCell>
        <mxCell id="Q18Vzf5FBxK6tpwk7XFQ-28" value="" style="rounded=1;whiteSpace=wrap;html=1;" vertex="1" parent="1">
          <mxGeometry x="30" y="620" width="270" height="70" as="geometry" />
        </mxCell>
        <mxCell id="Q18Vzf5FBxK6tpwk7XFQ-32" value="" style="sketch=0;pointerEvents=1;shadow=0;dashed=0;html=1;strokeColor=none;labelPosition=center;verticalLabelPosition=bottom;verticalAlign=top;align=center;fillColor=#505050;shape=mxgraph.mscae.enterprise.settings" vertex="1" parent="1">
          <mxGeometry x="270" y="710" width="30" height="30" as="geometry" />
        </mxCell>
        <mxCell id="Q18Vzf5FBxK6tpwk7XFQ-33" value="Container:" style="text;html=1;strokeColor=none;fillColor=none;align=center;verticalAlign=middle;whiteSpace=wrap;rounded=0;" vertex="1" parent="1">
          <mxGeometry x="30" y="260" width="60" height="30" as="geometry" />
        </mxCell>
        <mxCell id="Q18Vzf5FBxK6tpwk7XFQ-34" value="all" style="rounded=1;whiteSpace=wrap;html=1;" vertex="1" parent="1">
          <mxGeometry x="30" y="290" width="80" height="20" as="geometry" />
        </mxCell>
        <mxCell id="Q18Vzf5FBxK6tpwk7XFQ-36" value="&lt;b&gt;Issue insights:&lt;/b&gt;" style="text;html=1;strokeColor=none;fillColor=none;align=center;verticalAlign=middle;whiteSpace=wrap;rounded=0;" vertex="1" parent="1">
          <mxGeometry x="350" y="430" width="90" height="30" as="geometry" />
        </mxCell>
        <mxCell id="Q18Vzf5FBxK6tpwk7XFQ-37" value="TEST" style="text;html=1;strokeColor=none;fillColor=none;align=center;verticalAlign=middle;whiteSpace=wrap;rounded=0;" vertex="1" parent="1">
          <mxGeometry x="280" y="170" width="310" height="30" as="geometry" />
        </mxCell>
        <mxCell id="Q18Vzf5FBxK6tpwk7XFQ-39" value="&lt;b&gt;&lt;font style=&quot;font-size: 14px;&quot;&gt;Issue 1 - sample header&lt;/font&gt;&lt;/b&gt;" style="text;html=1;strokeColor=none;fillColor=none;align=left;verticalAlign=middle;whiteSpace=wrap;rounded=0;" vertex="1" parent="1">
          <mxGeometry x="80" y="340" width="170" height="30" as="geometry" />
        </mxCell>
        <mxCell id="Q18Vzf5FBxK6tpwk7XFQ-40" value="&lt;b&gt;&lt;font style=&quot;font-size: 14px;&quot;&gt;Issue 2 - sample header&lt;/font&gt;&lt;/b&gt;" style="text;html=1;strokeColor=none;fillColor=none;align=left;verticalAlign=middle;whiteSpace=wrap;rounded=0;" vertex="1" parent="1">
          <mxGeometry x="80" y="410" width="170" height="30" as="geometry" />
        </mxCell>
        <mxCell id="Q18Vzf5FBxK6tpwk7XFQ-41" value="&lt;b&gt;&lt;font style=&quot;font-size: 14px;&quot;&gt;Issue 3 - sample header&lt;/font&gt;&lt;/b&gt;" style="text;html=1;strokeColor=none;fillColor=none;align=left;verticalAlign=middle;whiteSpace=wrap;rounded=0;" vertex="1" parent="1">
          <mxGeometry x="80" y="480" width="170" height="30" as="geometry" />
        </mxCell>
        <mxCell id="Q18Vzf5FBxK6tpwk7XFQ-42" value="&lt;b&gt;&lt;font style=&quot;font-size: 14px;&quot;&gt;Issue 4 - sample header&lt;/font&gt;&lt;/b&gt;" style="text;html=1;strokeColor=none;fillColor=none;align=left;verticalAlign=middle;whiteSpace=wrap;rounded=0;" vertex="1" parent="1">
          <mxGeometry x="80" y="550" width="170" height="30" as="geometry" />
        </mxCell>
        <mxCell id="Q18Vzf5FBxK6tpwk7XFQ-43" value="&lt;b&gt;&lt;font style=&quot;font-size: 14px;&quot;&gt;Issue 5 - sample header&lt;/font&gt;&lt;/b&gt;" style="text;html=1;strokeColor=none;fillColor=none;align=left;verticalAlign=middle;whiteSpace=wrap;rounded=0;" vertex="1" parent="1">
          <mxGeometry x="80" y="620" width="170" height="30" as="geometry" />
        </mxCell>
        <mxCell id="Q18Vzf5FBxK6tpwk7XFQ-45" value="" style="shape=image;html=1;verticalAlign=top;verticalLabelPosition=bottom;labelBackgroundColor=#ffffff;imageAspect=0;aspect=fixed;image=https://cdn2.iconfinder.com/data/icons/crystalproject/32x32/actions/messagebox_critical.png" vertex="1" parent="1">
          <mxGeometry x="39" y="360" width="32" height="32" as="geometry" />
        </mxCell>
        <mxCell id="Q18Vzf5FBxK6tpwk7XFQ-46" value="" style="shape=image;html=1;verticalAlign=top;verticalLabelPosition=bottom;labelBackgroundColor=#ffffff;imageAspect=0;aspect=fixed;image=https://cdn2.iconfinder.com/data/icons/crystalproject/32x32/actions/messagebox_critical.png" vertex="1" parent="1">
          <mxGeometry x="39" y="428" width="32" height="32" as="geometry" />
        </mxCell>
        <mxCell id="Q18Vzf5FBxK6tpwk7XFQ-47" value="" style="shape=image;html=1;verticalAlign=top;verticalLabelPosition=bottom;labelBackgroundColor=#ffffff;imageAspect=0;aspect=fixed;image=https://cdn2.iconfinder.com/data/icons/crystalproject/32x32/actions/agt_update_critical.png" vertex="1" parent="1">
          <mxGeometry x="40" y="500" width="32" height="32" as="geometry" />
        </mxCell>
        <mxCell id="Q18Vzf5FBxK6tpwk7XFQ-48" value="" style="image;sketch=0;aspect=fixed;html=1;points=[];align=center;fontSize=12;image=img/lib/mscae/Info.svg;" vertex="1" parent="1">
          <mxGeometry x="42" y="570" width="30" height="30" as="geometry" />
        </mxCell>
        <mxCell id="Q18Vzf5FBxK6tpwk7XFQ-49" value="" style="image;sketch=0;aspect=fixed;html=1;points=[];align=center;fontSize=12;image=img/lib/mscae/Info.svg;" vertex="1" parent="1">
          <mxGeometry x="42" y="640" width="30" height="30" as="geometry" />
        </mxCell>
        <mxCell id="Q18Vzf5FBxK6tpwk7XFQ-50" value="container-1" style="text;html=1;strokeColor=none;fillColor=none;align=left;verticalAlign=middle;whiteSpace=wrap;rounded=0;" vertex="1" parent="1">
          <mxGeometry x="80" y="364" width="150" height="28" as="geometry" />
        </mxCell>
        <mxCell id="Q18Vzf5FBxK6tpwk7XFQ-51" value="container-2" style="text;html=1;strokeColor=none;fillColor=none;align=left;verticalAlign=middle;whiteSpace=wrap;rounded=0;" vertex="1" parent="1">
          <mxGeometry x="80" y="432" width="150" height="28" as="geometry" />
        </mxCell>
        <mxCell id="Q18Vzf5FBxK6tpwk7XFQ-52" value="container-3" style="text;html=1;strokeColor=none;fillColor=none;align=left;verticalAlign=middle;whiteSpace=wrap;rounded=0;" vertex="1" parent="1">
          <mxGeometry x="80" y="504" width="150" height="28" as="geometry" />
        </mxCell>
        <mxCell id="Q18Vzf5FBxK6tpwk7XFQ-53" value="container-4" style="text;html=1;strokeColor=none;fillColor=none;align=left;verticalAlign=middle;whiteSpace=wrap;rounded=0;" vertex="1" parent="1">
          <mxGeometry x="80" y="572" width="150" height="28" as="geometry" />
        </mxCell>
        <mxCell id="Q18Vzf5FBxK6tpwk7XFQ-54" value="container-5" style="text;html=1;strokeColor=none;fillColor=none;align=left;verticalAlign=middle;whiteSpace=wrap;rounded=0;" vertex="1" parent="1">
          <mxGeometry x="80" y="642" width="150" height="28" as="geometry" />
        </mxCell>
        <mxCell id="Q18Vzf5FBxK6tpwk7XFQ-55" value="Type" style="swimlane;fontStyle=0;childLayout=stackLayout;horizontal=1;startSize=30;horizontalStack=0;resizeParent=1;resizeParentMax=0;resizeLast=0;collapsible=1;marginBottom=0;whiteSpace=wrap;html=1;" vertex="1" parent="1">
          <mxGeometry x="-350" y="170" width="140" height="90" as="geometry" />
        </mxCell>
        <mxCell id="Q18Vzf5FBxK6tpwk7XFQ-56" value="Error" style="text;strokeColor=none;fillColor=none;align=left;verticalAlign=middle;spacingLeft=4;spacingRight=4;overflow=hidden;points=[[0,0.5],[1,0.5]];portConstraint=eastwest;rotatable=0;whiteSpace=wrap;html=1;" vertex="1" parent="Q18Vzf5FBxK6tpwk7XFQ-55">
          <mxGeometry y="30" width="140" height="30" as="geometry" />
        </mxCell>
        <mxCell id="Q18Vzf5FBxK6tpwk7XFQ-57" value="Anomaly" style="text;strokeColor=none;fillColor=none;align=left;verticalAlign=middle;spacingLeft=4;spacingRight=4;overflow=hidden;points=[[0,0.5],[1,0.5]];portConstraint=eastwest;rotatable=0;whiteSpace=wrap;html=1;" vertex="1" parent="Q18Vzf5FBxK6tpwk7XFQ-55">
          <mxGeometry y="60" width="140" height="30" as="geometry" />
        </mxCell>
        <mxCell id="Q18Vzf5FBxK6tpwk7XFQ-60" value="Severity" style="swimlane;fontStyle=0;childLayout=stackLayout;horizontal=1;startSize=30;horizontalStack=0;resizeParent=1;resizeParentMax=0;resizeLast=0;collapsible=1;marginBottom=0;whiteSpace=wrap;html=1;" vertex="1" parent="1">
          <mxGeometry x="-200" y="170" width="140" height="120" as="geometry" />
        </mxCell>
        <mxCell id="Q18Vzf5FBxK6tpwk7XFQ-61" value="Critical" style="text;strokeColor=none;fillColor=none;align=left;verticalAlign=middle;spacingLeft=4;spacingRight=4;overflow=hidden;points=[[0,0.5],[1,0.5]];portConstraint=eastwest;rotatable=0;whiteSpace=wrap;html=1;" vertex="1" parent="Q18Vzf5FBxK6tpwk7XFQ-60">
          <mxGeometry y="30" width="140" height="30" as="geometry" />
        </mxCell>
        <mxCell id="Q18Vzf5FBxK6tpwk7XFQ-62" value="Warning" style="text;strokeColor=none;fillColor=none;align=left;verticalAlign=middle;spacingLeft=4;spacingRight=4;overflow=hidden;points=[[0,0.5],[1,0.5]];portConstraint=eastwest;rotatable=0;whiteSpace=wrap;html=1;" vertex="1" parent="Q18Vzf5FBxK6tpwk7XFQ-60">
          <mxGeometry y="60" width="140" height="30" as="geometry" />
        </mxCell>
        <mxCell id="Q18Vzf5FBxK6tpwk7XFQ-63" value="Info" style="text;strokeColor=none;fillColor=none;align=left;verticalAlign=middle;spacingLeft=4;spacingRight=4;overflow=hidden;points=[[0,0.5],[1,0.5]];portConstraint=eastwest;rotatable=0;whiteSpace=wrap;html=1;" vertex="1" parent="Q18Vzf5FBxK6tpwk7XFQ-60">
          <mxGeometry y="90" width="140" height="30" as="geometry" />
        </mxCell>
        <mxCell id="Q18Vzf5FBxK6tpwk7XFQ-64" value="Container" style="swimlane;fontStyle=0;childLayout=stackLayout;horizontal=1;startSize=30;horizontalStack=0;resizeParent=1;resizeParentMax=0;resizeLast=0;collapsible=1;marginBottom=0;whiteSpace=wrap;html=1;" vertex="1" parent="1">
          <mxGeometry x="-350" y="272" width="140" height="120" as="geometry" />
        </mxCell>
        <mxCell id="Q18Vzf5FBxK6tpwk7XFQ-65" value="container-1" style="text;strokeColor=none;fillColor=none;align=left;verticalAlign=middle;spacingLeft=4;spacingRight=4;overflow=hidden;points=[[0,0.5],[1,0.5]];portConstraint=eastwest;rotatable=0;whiteSpace=wrap;html=1;" vertex="1" parent="Q18Vzf5FBxK6tpwk7XFQ-64">
          <mxGeometry y="30" width="140" height="30" as="geometry" />
        </mxCell>
        <mxCell id="Q18Vzf5FBxK6tpwk7XFQ-66" value="&lt;b&gt;....&lt;/b&gt;" style="text;strokeColor=none;fillColor=none;align=left;verticalAlign=middle;spacingLeft=4;spacingRight=4;overflow=hidden;points=[[0,0.5],[1,0.5]];portConstraint=eastwest;rotatable=0;whiteSpace=wrap;html=1;" vertex="1" parent="Q18Vzf5FBxK6tpwk7XFQ-64">
          <mxGeometry y="60" width="140" height="30" as="geometry" />
        </mxCell>
        <mxCell id="Q18Vzf5FBxK6tpwk7XFQ-67" value="container-n" style="text;strokeColor=none;fillColor=none;align=left;verticalAlign=middle;spacingLeft=4;spacingRight=4;overflow=hidden;points=[[0,0.5],[1,0.5]];portConstraint=eastwest;rotatable=0;whiteSpace=wrap;html=1;" vertex="1" parent="Q18Vzf5FBxK6tpwk7XFQ-64">
          <mxGeometry y="90" width="140" height="30" as="geometry" />
        </mxCell>
        <mxCell id="Q18Vzf5FBxK6tpwk7XFQ-68" value="Issue" style="swimlane;fontStyle=0;childLayout=stackLayout;horizontal=1;startSize=30;horizontalStack=0;resizeParent=1;resizeParentMax=0;resizeLast=0;collapsible=1;marginBottom=0;whiteSpace=wrap;html=1;" vertex="1" parent="1">
          <mxGeometry x="-350" y="450" width="140" height="120" as="geometry" />
        </mxCell>
        <mxCell id="Q18Vzf5FBxK6tpwk7XFQ-69" value="id: string(guid)" style="text;strokeColor=none;fillColor=none;align=left;verticalAlign=middle;spacingLeft=4;spacingRight=4;overflow=hidden;points=[[0,0.5],[1,0.5]];portConstraint=eastwest;rotatable=0;whiteSpace=wrap;html=1;" vertex="1" parent="Q18Vzf5FBxK6tpwk7XFQ-68">
          <mxGeometry y="30" width="140" height="30" as="geometry" />
        </mxCell>
        <mxCell id="Q18Vzf5FBxK6tpwk7XFQ-70" value="issue_type: string" style="text;strokeColor=none;fillColor=none;align=left;verticalAlign=middle;spacingLeft=4;spacingRight=4;overflow=hidden;points=[[0,0.5],[1,0.5]];portConstraint=eastwest;rotatable=0;whiteSpace=wrap;html=1;" vertex="1" parent="Q18Vzf5FBxK6tpwk7XFQ-68">
          <mxGeometry y="60" width="140" height="30" as="geometry" />
        </mxCell>
        <mxCell id="Q18Vzf5FBxK6tpwk7XFQ-76" value="issue_severity: string" style="text;strokeColor=none;fillColor=none;align=left;verticalAlign=middle;spacingLeft=4;spacingRight=4;overflow=hidden;points=[[0,0.5],[1,0.5]];portConstraint=eastwest;rotatable=0;whiteSpace=wrap;html=1;" vertex="1" parent="Q18Vzf5FBxK6tpwk7XFQ-68">
          <mxGeometry y="90" width="140" height="30" as="geometry" />
        </mxCell>
        <mxCell id="Q18Vzf5FBxK6tpwk7XFQ-73" value="" style="endArrow=none;dashed=1;html=1;dashPattern=1 3;strokeWidth=2;rounded=0;exitX=1.007;exitY=0.093;exitDx=0;exitDy=0;exitPerimeter=0;entryX=0;entryY=0.75;entryDx=0;entryDy=0;" edge="1" parent="1" source="Q18Vzf5FBxK6tpwk7XFQ-68" target="Q18Vzf5FBxK6tpwk7XFQ-24">
          <mxGeometry width="50" height="50" relative="1" as="geometry">
            <mxPoint x="180" y="520" as="sourcePoint" />
            <mxPoint x="230" y="470" as="targetPoint" />
          </mxGeometry>
        </mxCell>
        <mxCell id="Q18Vzf5FBxK6tpwk7XFQ-75" value="" style="endArrow=none;dashed=1;html=1;dashPattern=1 3;strokeWidth=2;rounded=0;entryX=0;entryY=0.5;entryDx=0;entryDy=0;exitX=1;exitY=0.167;exitDx=0;exitDy=0;exitPerimeter=0;" edge="1" parent="1" source="Q18Vzf5FBxK6tpwk7XFQ-74" target="Q18Vzf5FBxK6tpwk7XFQ-10">
          <mxGeometry width="50" height="50" relative="1" as="geometry">
            <mxPoint x="180" y="460" as="sourcePoint" />
            <mxPoint x="230" y="410" as="targetPoint" />
          </mxGeometry>
        </mxCell>
        <mxCell id="Q18Vzf5FBxK6tpwk7XFQ-77" value="Insights" style="swimlane;fontStyle=0;childLayout=stackLayout;horizontal=1;startSize=30;horizontalStack=0;resizeParent=1;resizeParentMax=0;resizeLast=0;collapsible=1;marginBottom=0;whiteSpace=wrap;html=1;" vertex="1" parent="1">
          <mxGeometry x="900" y="570" width="140" height="90" as="geometry" />
        </mxCell>
        <mxCell id="Q18Vzf5FBxK6tpwk7XFQ-79" value="issue: string" style="text;strokeColor=none;fillColor=none;align=left;verticalAlign=middle;spacingLeft=4;spacingRight=4;overflow=hidden;points=[[0,0.5],[1,0.5]];portConstraint=eastwest;rotatable=0;whiteSpace=wrap;html=1;" vertex="1" parent="Q18Vzf5FBxK6tpwk7XFQ-77">
          <mxGeometry y="30" width="140" height="30" as="geometry" />
        </mxCell>
        <mxCell id="Q18Vzf5FBxK6tpwk7XFQ-80" value="solutions: []string" style="text;strokeColor=none;fillColor=none;align=left;verticalAlign=middle;spacingLeft=4;spacingRight=4;overflow=hidden;points=[[0,0.5],[1,0.5]];portConstraint=eastwest;rotatable=0;whiteSpace=wrap;html=1;" vertex="1" parent="Q18Vzf5FBxK6tpwk7XFQ-77">
          <mxGeometry y="60" width="140" height="30" as="geometry" />
        </mxCell>
        <mxCell id="Q18Vzf5FBxK6tpwk7XFQ-81" value="" style="endArrow=none;dashed=1;html=1;dashPattern=1 3;strokeWidth=2;rounded=0;entryX=0.25;entryY=0;entryDx=0;entryDy=0;exitX=1.009;exitY=0.127;exitDx=0;exitDy=0;exitPerimeter=0;" edge="1" parent="1" source="Q18Vzf5FBxK6tpwk7XFQ-4" target="Q18Vzf5FBxK6tpwk7XFQ-77">
          <mxGeometry width="50" height="50" relative="1" as="geometry">
            <mxPoint x="490" y="480" as="sourcePoint" />
            <mxPoint x="540" y="430" as="targetPoint" />
          </mxGeometry>
        </mxCell>
      </root>
    </mxGraphModel>
  </diagram>
</mxfile>
